<?xml version="1.0" encoding="UTF-8" standalone="no"?>
<svg
   xmlns:dc="http://purl.org/dc/elements/1.1/"
   xmlns:cc="http://creativecommons.org/ns#"
   xmlns:rdf="http://www.w3.org/1999/02/22-rdf-syntax-ns#"
   xmlns:svg="http://www.w3.org/2000/svg"
   xmlns="http://www.w3.org/2000/svg"
   version="1.1"
   id="svg2"
   viewBox="0 0 675.11386 566.09164"
   height="58px"
   width="48.65px">
  <defs
     id="defs4" />
  <metadata
     id="metadata7">
    <rdf:RDF>
      <cc:Work
         rdf:about="">
        <dc:format>image/svg+xml</dc:format>
        <dc:type
           rdf:resource="http://purl.org/dc/dcmitype/StillImage" />
        <dc:title></dc:title>
      </cc:Work>
    </rdf:RDF>
  </metadata>
  <g
     transform="translate(-32.321437,-65.830447)"
     id="layer1">
    <path
       id="path3347"
       d="M 347.65671,608.18158 C 292.55853,588.13439 276.41897,586.7329 234.18983,598.32846 171.76615,615.46924 152.21537,607.6379 131.06632,557.02103 77.729619,429.36845 154.5353,238.68311 290.91318,160.16883 c 35.27345,-20.30721 33.55532,-17.03688 -17.05548,32.46393 -91.06163,89.06461 -142.76045,236.18836 -115.54324,328.81172 10.11708,34.42976 11.49334,34.97325 79.3805,31.34769 51.65677,-2.75888 83.51199,2.72618 126.27341,21.74253 109.32483,48.6177 227.50426,13.1343 288.29521,-86.56051 26.17684,-42.92895 30.0016,-32.61099 5.48543,14.79796 -37.36616,72.25831 -134.47671,130.13976 -216.65963,129.13713 -16.05874,-0.19621 -58.10344,-10.87332 -93.43267,-23.7277 z m 99.27222,-42.4316 c -12.847,-2.90006 -55.57722,-17.91254 -94.956,-33.36098 -41.37442,-16.2314 -90.67511,-26.93486 -116.79085,-25.35595 -43.87785,2.65284 -45.28149,1.54276 -48.23461,-38.14445 -5.52178,-74.20805 44.32371,-133.23181 67.40111,-79.81196 10.40672,24.08965 11.29022,22.50728 7.60477,-13.62071 -2.29349,-22.48224 -8.15069,-50.04749 -13.01611,-61.25623 -6.48292,-14.93522 3.05516,-32.09497 35.70464,-64.23497 l 44.55076,-43.85552 6.76041,35.03725 c 6.75248,34.99568 6.77013,35.00259 14.91214,5.83955 4.48336,-16.05874 8.22338,-42.83608 8.31111,-59.50503 0.22331,-42.45366 29.20668,-63.94149 116.67733,-86.50305 41.60258,-10.730652 84.96122,-24.49833 96.35244,-30.594718 23.98538,-12.836622 27.43688,2.064581 8.62141,37.221618 -9.0996,17.00269 -8.2972,22.59034 3.24398,22.59034 8.4337,0 24.33388,10.51117 35.33381,23.35816 17.28897,20.19202 17.55786,23.35817 1.98395,23.35817 -13.42918,0 -4.47973,24.83244 35.15161,97.53708 59.19689,108.5982 59.7828,110.85413 36.91273,142.1309 -14.4645,19.78129 -18.57049,20.3488 -37.27917,5.15197 -12.68592,-10.30459 -17.54582,-11.28779 -12.2537,-2.47895 16.74706,27.87545 -12.92884,14.38181 -54.41061,-24.7406 -25.73818,-24.27428 -37.54928,-43.50216 -30.84194,-50.2095 6.70725,-6.70726 -4.9794,-9.01962 -30.51726,-6.03828 -27.64523,3.22745 -48.49081,-1.59695 -62.78133,-14.52971 -19.67627,-17.80678 -21.97892,-17.83752 -28.67673,-0.38308 -24.29465,63.31073 19.87733,159.74661 91.59887,199.9776 l 45.84937,25.71856 -34.40836,7.72249 c -60.23548,13.51914 -68.95798,14.36321 -92.80377,8.98028 z M 32.321437,428.47991 c 0,-70.26231 133.550233,-236.87407 233.455273,-291.24917 71.71256,-39.030846 77.84838,-32.26034 7.90889,8.72698 -88.25333,51.71985 -158.16714,143.03534 -189.123343,247.01684 -13.834108,46.46846 -52.24082,72.57149 -52.24082,35.50535 z"
       style="fill:#c9aa73" />
  </g>
</svg>
